<?xml version="1.0" encoding="utf-8"?>
<!-- Generator: Adobe Illustrator 25.0.1, SVG Export Plug-In . SVG Version: 6.00 Build 0)  -->
<svg version="1.1" id="Ebene_1" xmlns="http://www.w3.org/2000/svg" xmlns:xlink="http://www.w3.org/1999/xlink" x="0px" y="0px"
	 viewBox="0 0 391.5 213.75" enable-background="new 0 0 391.5 213.75" xml:space="preserve">
<path fill="#96999C" d="M0,90.43271h25.9862v49.92387h41.87932v18.52318c-0.30209,0.19475-0.63728,0.33252-0.989,0.40649
	C44.58434,159.26819,22.29217,159.23659,0,159.19147V90.43271z"/>
<path fill="#96999C" d="M168.6179,90.81599h31.33324c8.60632,12.73112,17.35242,25.66887,26.09846,38.60664l0.73946,0.95782
	V90.89294h25.45401v68.119h-30.073c-9.0172-12.46626-19.10291-26.11711-28.45799-39.05046l0,0l0.00713,39.10699h-25.1013V90.81599z"
	/>
<path fill="#96999C" d="M354.92023,211.47165c-5.95367-3.57968-11.67624-7.02039-17.16772-10.32217
	c35.16705-64.33737,34.21317-127.57788-3.19656-190.91628c17.36697-9.75462-0.00003,0.00003,17.367-9.75465
	C390.44412,56.92065,397.51169,143.052,354.92023,211.47165z"/>
<path fill="#96999C" d="M101.54766,90.821h34.01785c9.15761,22.49214,18.37621,45.13408,27.77194,68.21109h-28.838
	c-0.73874-1.83972-1.55966-3.88409-2.47211-6.15637h-28.9819c-0.88249,2.01778-1.80957,4.13751-2.74018,6.26534h-28.572
	L101.54766,90.821z M117.9242,111.73244l-8.66894,23.89938h16.92664c-2.7636-7.99847-5.37479-15.55573-8.2577-23.89943V111.73244z"
	/>
<path fill="#96999C" d="M299.79181,141.42651h38.13452v17.93314h-75.00076v-15.50549
	c12.77301-11.44411,25.83841-23.15009,39.53241-35.41928h-37.18799V90.87862h73.76248v15.86838
	C326.26898,117.85637,312.79156,130.11153,299.79181,141.42651L299.79181,141.42651z"/>
<path fill="#96999C" d="M143.09509,81.90762v-26.5464l0,0c-3.88582,8.20309-8.5578,18.22662-12.52086,26.59272h-8.47974
	c-3.71129-8.32654-8.19172-18.27818-11.96584-26.74574l0,0v26.72554h-9.5111v-39.7352h12.93771
	c4.10533,8.96063,8.31551,18.15015,12.92844,28.2187c4.71161-10.02513,9.01344-19.1783,13.30452-28.30862h12.70816v39.799H143.09509
	z"/>
<path fill="#96999C" d="M184.72066,62.87479c0.39523-0.07267,0.75775-0.31711,0.90987-0.68908
	c0.81406-1.99063-0.34067-3.77805-2.25134-4.37731c-5.12506-1.60741-9.27946-0.07585-11.32042,4.23074h-9.25674
	c-0.31915-3.79562,1.95387-7.33147,5.53943-8.61694c6.92639-3.04042,14.79445-3.1181,21.77953-0.21506
	c2.90994,1.15529,4.73514,3.25999,4.86974,6.45242c0.2144,5.08423,0.41861,10.17294,0.41861,15.26225
	c0,2.32412-0.15648,4.63326,0.47681,7.19942h-9.28291l-1.13158-2.49878c-5.6741,4.01878-11.86816,4.50514-18.241,2.79446
	c-4.797-1.28767-7.61475-5.23241-7.3653-9.57094c0.2301-4.00191,2.71777-6.62038,7.9086-7.61685
	c3.89185-0.74712,7.88638-0.94968,11.826-1.4649C181.33646,63.53712,183.05608,63.18083,184.72066,62.87479z M172.12726,75.7526
	c2.81535,2.24283,5.89027,1.31437,8.77316,0.11092c0.47812-0.19959,0.92148-0.47224,1.32777-0.79377
	c1.93681-1.53272,3.68739-3.31523,3.53619-6.79459"/>
<path fill="#96999C" d="M333.50668,63.53877c4.47937,0.65671,7.32349,3.22514,7.86441,6.79417
	c0.73907,4.87611-0.82825,8.70966-5.14911,10.53027c-7.62643,3.37682-16.34543,3.26469-23.88251-0.30714
	c-3.21268-1.248-5.12387-4.56287-4.59531-7.96778c0.00082-0.00529,0.00552-0.00936,0.01086-0.00936h8.91476
	c0.00369,0,0.00711,0.00211,0.00891,0.0053c2.80322,4.97915,7.85925,4.68001,12.3551,3.32001
	c0.72244-0.10407,1.35904-0.80236,1.99216-1.5248c0.60129-0.68615,0.76682-1.6517,0.42725-2.49848l-0.00336-0.00838
	c-0.71286-1.29647-3.33023-1.1439-13.85571-2.24487c-3.56473-0.37287-8.58621-2.76112-9.26855-9.28782
	c0.05826-3.22147,2.1019-6.07152,5.13437-7.16029c7.05023-3.10553,15.08582-3.08034,22.11646,0.06934
	c3.12344,1.35847,5.2356,3.70035,4.8765,7.72349c-0.00049,0.00557-0.00528,0.01021-0.01089,0.01021h-8.32867
	c-0.00266,0-0.00674-0.00033-0.00714-0.00297c-0.66089-4.6145-7.19928-4.39034-10.82199-3.14123
	c-2.15186,0.74197-1.86331,3.88869,0.38187,4.26318"/>
<path fill="#96999C" d="M263.77835,81.97575H251.483l-10.42792-11.5522l-3.78741,2.43076v9.05779h-8.899V42.144h8.77669v21.17943
	l13.36131-10.98834H262.34c-5.06592,4.24792-9.51999,7.9828-14.3645,12.04509L263.77835,81.97575z"/>
<path fill="#96999C" d="M291.89313,78.06906c-4.52863,3.28358-13.15558,5.72643-18.33218,3.60674
	c-3.733-1.42786-6.09567-4.12471-6.2377-8.04871c-0.25089-6.93179-0.07025-13.87915-0.07025-21.10873h9.05713
	c0,2.5887-0.00772,5.15195,0.00211,7.71512c0.0105,2.73438-0.13934,5.48399,0.09601,8.19968
	c0.42883,4.94807,2.41586,6.93642,6.52625,6.93929c4.86563,0.00336,8.233-2.91315,8.38748-7.62128
	c0.16583-5.05333,0.03745-10.11623,0.03745-15.34315h9.28867v29.51773h-8.79218"/>
<path fill="#96999C" d="M202.9276,81.82339V52.46632h8.57983l0.00484,2.90787c3.40323-2.49924,7.43275-4.82024,11.95398-3.89475
	V58.845c-0.68237,0.08661-1.2738,0.19829-1.86964,0.23167c-6.61394,0.37067-9.48009,3.1796-9.67429,9.75
	c-0.12471,4.21951-0.02339,8.44571-0.02339,12.99675L202.9276,81.82339z"/>
<path fill="#FDFDFD" d="M117.9242,111.73239c2.88291,8.3437,5.4941,15.901,8.2577,23.89938h-16.92664L117.9242,111.73239z"/>
<path fill="#FDFDFD" d="M172.18987,75.80235c-0.16353-0.13027-0.5891-0.53517-0.71329-0.72086
	c-1.3179-1.97052,0.0186-4.65693,2.35686-5.04731l11.93095-1.75902"/>
</svg>
