<?xml version="1.0" encoding="UTF-8" standalone="no"?>
<svg
   xmlns:osb="http://www.openswatchbook.org/uri/2009/osb"
   xmlns:dc="http://purl.org/dc/elements/1.1/"
   xmlns:cc="http://creativecommons.org/ns#"
   xmlns:rdf="http://www.w3.org/1999/02/22-rdf-syntax-ns#"
   xmlns:svg="http://www.w3.org/2000/svg"
   xmlns="http://www.w3.org/2000/svg"
   xmlns:sodipodi="http://sodipodi.sourceforge.net/DTD/sodipodi-0.dtd"
   xmlns:inkscape="http://www.inkscape.org/namespaces/inkscape"
   width="600"
   height="285"
   version="1.1"
   id="svg6"
   sodipodi:docname="Logo_Terra_X.svg"
   inkscape:version="1.0.1 (3bc2e813f5, 2020-09-07)">
  <metadata
     id="metadata12">
    <rdf:RDF>
      <cc:Work
         rdf:about="">
        <dc:format>image/svg+xml</dc:format>
        <dc:type
           rdf:resource="http://purl.org/dc/dcmitype/StillImage" />
      </cc:Work>
    </rdf:RDF>
  </metadata>
  <defs
     id="defs10">
    <linearGradient
       id="linearGradient845"
       osb:paint="solid">
      <stop
         style="stop-color:#000000;stop-opacity:1;"
         offset="0"
         id="stop843" />
    </linearGradient>
    <linearGradient
       id="linearGradient839"
       osb:paint="solid">
      <stop
         style="stop-color:#000000;stop-opacity:1;"
         offset="0"
         id="stop837" />
    </linearGradient>
  </defs>
  <sodipodi:namedview
     pagecolor="#ffffff"
     bordercolor="#666666"
     borderopacity="1"
     objecttolerance="10"
     gridtolerance="10"
     guidetolerance="10"
     inkscape:pageopacity="0"
     inkscape:pageshadow="2"
     inkscape:window-width="1920"
     inkscape:window-height="1009"
     id="namedview8"
     showgrid="false"
     inkscape:zoom="1.7027567"
     inkscape:cx="300"
     inkscape:cy="142.5"
     inkscape:window-x="-8"
     inkscape:window-y="-8"
     inkscape:window-maximized="1"
     inkscape:current-layer="svg6"
     inkscape:document-rotation="0" />
  <path
     d="m419.39 218.94-76.31-76.434 75.919-76.039-8e-3 -8e-3c6.0517-5.8569 9.8144-14.058 9.8144-23.152 0-17.782-14.392-32.196-32.146-32.196-9.0741 0-17.267 3.775-23.116 9.8297l-0.0153-8e-3 -75.919 76.039-75.92-76.039-8e-3 8e-3c-5.8485-6.0647-14.036-9.8335-23.117-9.8335-17.754 0-32.146 14.414-32.146 32.196 0 9.0886 3.7688 17.295 9.8152 23.152l-0.0153 8e-3 75.919 76.039-76.309 76.429c-5.8202 5.8294-9.4141 13.877-9.4141 22.767 0 17.782 14.392 32.201 32.152 32.201 8.8762 0 16.911-3.6046 22.732-9.434l76.31-76.429 76.315 76.429c5.8141 5.8294 13.855 9.434 22.732 9.434 17.754 0 32.152-14.415 32.152-32.201 0-8.8908-3.6-16.944-9.4194-22.767z"
     opacity=".5"
     id="path2"
     style="fill-opacity:1;fill:#7f7f7f;stroke:none;stroke-opacity:1;opacity:1" />
  <path
     d="m546.47 110.05h23.883l19.65 64.867h-20.391l-1.6121-6.3779h-20.659l-1.7496 6.3779h-20.185zm17.358 42.496-5.8523-22.819-6.1885 22.819zm-120.97-42.496c3.859 0 7.1083 0.23761 9.7579 0.71817 2.645 0.48132 4.7521 1.3469 6.3229 2.6037 1.8367 1.4371 3.2325 3.3555 4.17 5.7499 0.94431 2.3936 1.4126 5.1838 1.4126 8.3529 0 3.8315-0.69449 7.2046-2.085 10.108-1.3897 2.9032-3.3616 5.0195-5.9218 6.3329 1.3003 0.71817 2.334 1.4998 3.0965 2.3371 0.76324 0.83735 1.3561 1.7939 1.7855 2.875 0.42402 1.0811 0.7067 2.3203 0.84193 3.7291 0.13599 1.4096 0.24907 3.0392 0.33922 4.8958 0.0909 2.3371 0.16961 4.4198 0.23761 6.2419 0.0688 1.8283 0.1803 3.4128 0.33922 4.7598 0.15815 1.347 0.38964 2.4563 0.70594 3.3219 0.31095 0.87173 0.76248 1.4829 1.3446 1.839v0.99092h-20.924c-0.36137-0.78158-0.60433-1.6472-0.73956-2.6037-0.13599-0.95654-0.22614-2.0032-0.27122-3.1462-0.0458-1.1376-0.0688-2.3379-0.0688-3.5939 0-1.2568-0.0688-2.5747-0.20323-3.9499-0.22614-2.4563-0.83124-4.1486-1.8199-5.0768-0.98863-0.92827-2.6442-1.392-4.9783-1.392h-11.232v19.768h-19.105v-64.867h37.005zm-6.9273 28.031c2.5992 0 4.5542-0.40186 5.8538-1.2117 1.2996-0.80908 1.949-2.3822 1.949-4.7139 0-2.4563-0.69525-4.0126-2.085-4.675-1.3897-0.65628-3.4526-0.99015-6.193-0.99015h-10.498v11.591h10.967zm-128.74-28.031c3.859 0 7.1083 0.23761 9.7579 0.71817 2.6442 0.48132 4.7521 1.3469 6.3229 2.6037 1.8367 1.4371 3.2325 3.3555 4.17 5.7499 0.94355 2.3936 1.4126 5.1838 1.4126 8.3529 0 3.8315-0.69448 7.2046-2.085 10.108-1.3897 2.9032-3.3616 5.0195-5.9218 6.3329 1.2996 0.71817 2.334 1.4998 3.0965 2.3371 0.76325 0.83735 1.3561 1.7939 1.7855 2.875 0.42402 1.0811 0.70671 2.3203 0.84193 3.7291 0.136 1.4096 0.24907 3.0392 0.33922 4.8958 0.0902 2.3371 0.16961 4.4198 0.23761 6.2419 0.0688 1.8283 0.18031 3.4128 0.33846 4.7598 0.15891 1.347 0.3904 2.4563 0.7067 3.3219 0.3163 0.87173 0.76248 1.4829 1.3446 1.839v0.99092h-20.924c-0.36138-0.78158-0.60433-1.6472-0.73956-2.6037-0.136-0.95654-0.22615-2.0032-0.27123-3.1462-0.0458-1.1376-0.0688-2.3379-0.0688-3.5939 0-1.2568-0.0688-2.5747-0.20399-3.9499-0.22538-2.4563-0.83047-4.1486-1.8191-5.0768-0.98862-0.92827-2.6442-1.392-4.9783-1.392h-11.233v19.768h-19.104v-64.867h37.005zm-6.928 28.031c2.5992 0 4.5542-0.40186 5.8538-1.2117 1.2996-0.80908 1.9497-2.3822 1.9497-4.7139 0-2.4563-0.69524-4.0126-2.085-4.675-1.3897-0.65628-3.4526-0.99015-6.193-0.99015h-10.498v11.591h10.967zm-165.02-28.031h51.47v15.902h-32.632v7.7249h26.438v15.994h-26.438v8.534h34.247v16.712h-53.086zm-107.68 16.44h-17.561v-16.44h54.024v16.44h-17.629v48.427h-18.838v-48.427z"
     id="path4" />
</svg>
