<?xml version="1.0" encoding="UTF-8" standalone="no"?>
<svg
   xmlns:svg="http://www.w3.org/2000/svg"
   xmlns="http://www.w3.org/2000/svg"
   version="1.1"
   width="288.0625"
   height="114.5"
   id="svg3014">
  <defs
     id="defs3016" />
  <g
     transform="translate(-293.11161,-575.11218)"
     id="layer1">
    <path
       d="m 520.70536,576.20593 c -13.625,0 -24.59375,10.9375 -24.59375,24.5625 0,13.53125 10.96875,24.5 24.59375,24.5 9.57422,0 17.85546,-5.42969 21.90625,-13.4375 l 10.21875,0 c 2.39453,0 4.60546,-0.0938 6.8125,-1.9375 1.66015,-1.28906 2.66406,-3.04688 3.125,-5.4375 l 0,7.375 4.6875,0 0,-8.65625 11.0625,0 0,-3.875 -11.0625,0 0,-1.5625 c 0,-2.57813 0.84766,-4.03125 4.53125,-4.03125 l 8.1875,0 0,-3.875 -9.84375,0 c -5.33984,0 -7.5625,2.92578 -7.5625,7.53125 l 0,0.34375 c -0.94435,-5.35569 -4.14413,-7.875 -10.125,-7.875 l -9.9375,0 c -4.05079,-8.10156 -12.42578,-13.625 -22,-13.625 z m 26.6875,17.5 5.15625,0 c 4.05078,0 5.53125,1.72266 5.53125,7.0625 0,5.42969 -1.48047,7.1875 -5.53125,7.1875 l -5.15625,0 0,-14.25 z"
       id="path28"
       style="fill:#ff5900;stroke:none" />
    <path
       d="m 531.55777,598.94065 3.03906,0 c 2.39453,0 3.86719,-0.46094 3.86719,-2.57813 0,-2.11718 -1.47266,-2.67187 -3.96094,-2.67187 l -10.30859,0 0,-3.86719 12.05859,0 c 6.07813,0 6.90625,4.23438 6.90625,6.62891 0,2.48828 -1.01172,6.53906 -6.90625,6.53906 l -3.03906,0 c -3.67969,0 -4.41797,1.37891 -4.41797,3.86328 l 0,1.19922 13.8086,0 0,3.77344 -18.50391,0 0,-5.52344 c 0,-4.60156 2.11719,-7.36328 7.45703,-7.36328"
       id="path34"
       style="fill:#ffffff;stroke:none" />
    <path
       d="m 294.11161,576.11218 0,51.59375 12.40625,0 0,-20.375 c -2e-5,-3.1746 0.50415,-5.49812 1.53125,-6.96875 1.02706,-1.47057 2.60244,-2.21872 4.75,-2.21875 2.00745,3e-5 3.378,0.59871 4.125,1.8125 0.74694,1.21385 1.12497,4.08861 1.125,8.59375 l 0,19.15625 12.46875,0 0,-26.1875 c -4e-5,-4.22502 -1.05544,-7.42283 -3.15625,-9.59375 -2.10089,-2.19418 -5.12551,-3.31246 -9.09375,-3.3125 -2.54439,4e-5 -4.77342,0.48049 -6.6875,1.4375 -1.89079,0.95709 -3.55277,2.47712 -5,4.53125 l 0,-18.46875 -12.46875,0 z m 133.71875,2.75 0,10.78125 -5.125,0 0,7.53125 5.125,0 0,14.71875 c -10e-6,3.50144 0.19691,6.3841 0.59375,8.625 0.39682,2.21757 0.98759,3.85583 1.78125,4.90625 1.61065,2.10086 4.57991,3.15625 8.875,3.15625 1.16712,0 2.23833,-0.0708 3.21875,-0.1875 0.98037,-0.11671 1.85467,-0.22703 2.625,-0.34375 0.77029,-0.11671 1.29026,-0.21122 1.59375,-0.28125 l 0,-7.9375 c -0.16343,0.0467 -0.37617,0.0625 -0.65625,0.0625 l -0.90625,0 c -1.82076,1e-5 -3.06517,-0.40174 -3.71875,-1.21875 -0.63028,-0.81699 -0.93752,-2.51021 -0.9375,-5.03125 l 0,-16.46875 6.375,0 0,-7.53125 -6.375,0 0,-10.78125 -12.46875,0 z m -71.9375,9.46875 c -5.88241,4e-5 -10.54528,1.84313 -14,5.53125 -3.4314,3.66485 -5.125,8.66622 -5.125,14.96875 0,6.2092 1.70151,11.08481 5.15625,14.65625 3.45472,3.57145 8.10969,5.375 13.96875,5.375 4.85528,0 8.91947,-1.1499 12.1875,-3.4375 3.2913,-2.31093 5.5045,-5.56372 6.625,-9.71875 l -11.96875,0 c -0.49023,1.40058 -1.27001,2.45598 -2.34375,3.15625 -1.05045,0.67695 -2.39728,1.03126 -4.03125,1.03125 -2.24093,1e-5 -3.95788,-0.73233 -5.125,-2.15625 -1.14382,-1.4239 -1.68752,-3.4639 -1.6875,-6.125 l 25.71875,0 0.0312,-0.78125 0.0312,-1.40625 c -4e-5,-6.58264 -1.74071,-11.73387 -5.21875,-15.46875 -3.47811,-3.73481 -8.21968,-5.62496 -14.21875,-5.625 z m 113.46875,0 c -5.8824,4e-5 -10.54528,1.84313 -14,5.53125 -3.4314,3.66485 -5.15625,8.66622 -5.15625,14.96875 0,6.2092 1.73276,11.08481 5.1875,14.65625 3.45473,3.57145 8.10969,5.375 13.96875,5.375 4.85528,0 8.91948,-1.1499 12.1875,-3.4375 3.2913,-2.31093 5.47325,-5.56372 6.59375,-9.71875 l -11.96875,0 c -0.49022,1.40058 -1.27001,2.45598 -2.34375,3.15625 -1.05045,0.67695 -2.39728,1.03126 -4.03125,1.03125 -2.24093,1e-5 -3.92662,-0.73233 -5.09375,-2.15625 -1.14381,-1.4239 -1.71877,-3.4639 -1.71875,-6.125 l 25.71875,0 0.0312,-0.78125 0.0625,-1.40625 c -4e-5,-6.58264 -1.74071,-11.73387 -5.21875,-15.46875 -3.47811,-3.73481 -8.21967,-5.62496 -14.21875,-5.625 z m -87.84375,1.3125 0,26.15625 c -10e-6,4.22506 1.03205,7.42288 3.15625,9.59375 2.12418,2.17088 5.29828,3.25 9.5,3.25 1.26049,0 2.4183,-0.11823 3.46875,-0.375 1.07374,-0.25677 2.06626,-0.6348 3,-1.125 1.93743,-1.05042 3.64647,-2.60998 5.09375,-4.6875 l 0,5.25 12.1875,0 0,-38.0625 -12.46875,0 0,20.34375 c -2e-5,3.22132 -0.49628,5.55276 -1.5,7 -0.98042,1.44727 -2.57914,2.15626 -4.75,2.15625 -1.96081,1e-5 -3.32345,-0.59075 -4.09375,-1.78125 -0.77033,-1.21381 -1.15626,-3.35623 -1.15625,-6.4375 l 0,-21.28125 -12.4375,0 z m -25.21875,7.125 c 2.17085,3e-5 3.89571,0.69321 5.15625,2.09375 1.28382,1.4006 1.90622,3.31447 1.90625,5.71875 l -14.1875,0.0312 c 0.2801,-2.56768 1.03616,-4.51318 2.25,-5.84375 1.21381,-1.33051 2.84415,-1.99997 4.875,-2 z m 113.4375,0 c 2.17086,3e-5 3.89571,0.69321 5.15625,2.09375 1.28383,1.4006 1.90622,3.31447 1.90625,5.71875 l -14.15625,0.0312 c 0.2801,-2.56768 1.00491,-4.51318 2.21875,-5.84375 1.21381,-1.33051 2.84416,-1.99997 4.875,-2 z m -49.4375,35.4375 0,55.1875 6.71875,0 0,-23.71875 c -2e-5,-3.49553 1.07147,-6.26507 3.21875,-8.3125 2.14725,-2.07233 5.04212,-3.12496 8.6875,-3.125 2.94623,4e-5 5.02024,0.75194 6.21875,2.25 1.22341,1.49813 1.84372,4.24883 1.84375,8.21875 l 0,24.6875 6.8125,0 0,-24.09375 0,-1.90625 c -4e-5,-2.84635 -0.13164,-4.92037 -0.40625,-6.21875 -0.27469,-1.32328 -0.71958,-2.4637 -1.34375,-3.4375 -1.1236,-1.82264 -2.74017,-3.19485 -4.8125,-4.09375 -2.07239,-0.92378 -4.60387,-1.37496 -7.625,-1.375 -2.87138,4e-5 -5.384,0.57025 -7.53125,1.71875 -2.14729,1.12361 -3.83907,2.7653 -5.0625,4.9375 l 0,-20.71875 -6.71875,0 z m 60.6875,13.75 c -6.0673,4e-5 -10.78555,1.8798 -14.15625,5.625 -3.34575,3.74527 -5,8.97107 -5,15.6875 0,6.76641 1.66053,12.00478 5.03125,15.75 3.3707,3.72027 8.12648,5.59375 14.21875,5.59375 6.06726,0 10.74797,-1.87976 14.09375,-5.625 3.37067,-3.74523 5.06246,-8.97731 5.0625,-15.71875 -4e-5,-6.7414 -1.69183,-11.9672 -5.0625,-15.6875 -3.37075,-3.7452 -8.09528,-5.62496 -14.1875,-5.625 z m -85.375,0.0625 c -4.66908,4e-5 -8.36594,1.05896 -11.0625,3.15625 -2.67161,2.0724 -4.00001,4.89204 -4,8.4375 -10e-6,3.12106 0.82084,5.52094 2.46875,7.21875 1.67287,1.6729 4.63038,3.00757 8.875,4.03125 l 7.53125,1.96875 c 2.4219,0.57429 4.05102,1.26353 4.875,2.0625 0.84889,0.77403 1.28122,1.90189 1.28125,3.375 -3e-5,1.97251 -0.8584,3.50772 -2.53125,4.65625 -1.67289,1.12358 -3.94746,1.6875 -6.84375,1.6875 -3.14602,0 -5.58971,-0.69553 -7.3125,-2.09375 -1.69786,-1.39822 -2.65658,-3.46595 -2.90625,-6.1875 l -6.5,0 c 0.0749,4.61914 1.50349,8.17811 4.25,10.625 2.77146,2.44688 6.73153,3.65625 11.875,3.65625 5.26828,0 9.35994,-1.14042 12.28125,-3.4375 2.94622,-2.32204 4.40622,-5.58029 4.40625,-9.75 -3e-5,-3.17095 -0.87725,-5.61464 -2.625,-7.3125 -1.7478,-1.72279 -4.91844,-3.12012 -9.5625,-4.21875 l -6.53125,-1.53125 c -2.42193,-0.54927 -4.06991,-1.18214 -4.96875,-1.90625 -0.8739,-0.74902 -1.31251,-1.76412 -1.3125,-3.0625 -10e-6,-1.82265 0.69551,-3.23867 2.09375,-4.1875 1.42317,-0.94876 3.4972,-1.40621 6.21875,-1.40625 2.72152,4e-5 4.86448,0.57653 6.4375,1.75 1.59794,1.14857 2.47516,2.78398 2.625,4.90625 l 6.53125,0 0,-0.15625 c -3e-5,-3.7452 -1.39737,-6.71529 -4.21875,-8.9375 -2.82144,-2.22213 -6.60609,-3.34371 -11.375,-3.34375 z m 108.3125,1.25 11.96875,40.125 6.8125,0 8.5,-30.90625 8.46875,30.90625 6.8125,0 12.21875,-40.125 -6.9375,0 -8.78125,30.65625 -7.84375,-30.65625 -7.8125,0 -7.90625,30.65625 -8.5,-30.65625 -7,0 z m -22.84375,4.6875 c 3.94496,4e-5 6.96514,1.32215 9.0625,3.96875 2.0973,2.6217 3.12496,6.40006 3.125,11.34375 -4e-5,4.9687 -1.0277,8.75963 -3.125,11.40625 -2.09736,2.62167 -5.11754,3.9375 -9.0625,3.9375 -3.96997,0 -7.04025,-1.31583 -9.1875,-3.9375 -2.12231,-2.64662 -3.18751,-6.43755 -3.1875,-11.40625 -10e-6,-4.96865 1.06519,-8.7533 3.1875,-11.375 2.12229,-2.62163 5.19256,-3.93746 9.1875,-3.9375 z"
       id="path3097"
       style="font-size:76.70246887px;font-style:normal;font-variant:normal;font-weight:normal;font-stretch:normal;line-height:125%;letter-spacing:0px;word-spacing:0px;fill:#a6a197;fill-opacity:1;stroke:none;font-family:Swis721 BT;-inkscape-font-specification:Swis721 BT" />
  </g>
</svg>
