<?xml version="1.0" encoding="UTF-8" standalone="no"?>
<!-- Created with Inkscape (http://www.inkscape.org/) -->

<svg
   xmlns:dc="http://purl.org/dc/elements/1.1/"
   xmlns:cc="http://creativecommons.org/ns#"
   xmlns:rdf="http://www.w3.org/1999/02/22-rdf-syntax-ns#"
   xmlns:svg="http://www.w3.org/2000/svg"
   xmlns="http://www.w3.org/2000/svg"
   version="1.1"
   width="751.06"
   height="231"
   id="svg2">
  <defs
     id="defs4" />
  <metadata
     id="metadata7">
    <rdf:RDF>
      <cc:Work
         rdf:about="">
        <dc:format>image/svg+xml</dc:format>
        <dc:type
           rdf:resource="http://purl.org/dc/dcmitype/StillImage" />
        <dc:title></dc:title>
      </cc:Work>
    </rdf:RDF>
  </metadata>
  <g
     transform="translate(0,-821.36218)"
     id="layer1">
    <path
       d="m 414.28179,824.83093 0,224.09377 137.62517,0 0,-22 -115.62515,0 0,-202.09377 z"
       id="path3808-1"
       style="font-size:medium;font-style:normal;font-variant:normal;font-weight:normal;font-stretch:normal;text-indent:0;text-align:start;text-decoration:none;line-height:normal;letter-spacing:normal;word-spacing:normal;text-transform:none;direction:ltr;block-progression:tb;writing-mode:lr-tb;text-anchor:start;baseline-shift:baseline;color:#000000;fill:#ba8d39;fill-opacity:1;fill-rule:nonzero;stroke:none;stroke-width:22;marker:none;visibility:visible;display:inline;overflow:visible;enable-background:accumulate;font-family:Sans;-inkscape-font-specification:Sans" />
    <path
       d="m 576.50075,824.83093 0,22 62.50008,0 c 49.8636,0 90.05917,40.16772 90.05917,90.03125 0,49.86355 -40.19557,90.06252 -90.05917,90.06252 -16.42711,0 -49.28132,0 -49.28132,0 l 0,-89.90627 -22.00003,0 0,111.90627 71.28135,0 c 61.7533,0 112.0592,-50.30929 112.0592,-112.06252 0,-61.75322 -50.3059,-112.03125 -112.0592,-112.03125 z"
       id="path3808-4"
       style="font-size:medium;font-style:normal;font-variant:normal;font-weight:normal;font-stretch:normal;text-indent:0;text-align:start;text-decoration:none;line-height:normal;letter-spacing:normal;word-spacing:normal;text-transform:none;direction:ltr;block-progression:tb;writing-mode:lr-tb;text-anchor:start;baseline-shift:baseline;color:#000000;fill:#ba8d39;fill-opacity:1;fill-rule:nonzero;stroke:none;stroke-width:22;marker:none;visibility:visible;display:inline;overflow:visible;enable-background:accumulate;font-family:Sans;-inkscape-font-specification:Sans" />
    <path
       d="M 112.06264,824.83093 C 50.30935,824.83093 0,875.10896 0,936.86218 0,998.6154 50.30935,1048.9247 112.06264,1048.9247 l 71.03134,0 0,-123.03127 -35.50004,0 0,22 13.50002,0 0,79.03127 c 0,0 -32.68755,0 -49.03132,0 -49.86359,0 -90.06261,-40.19898 -90.06261,-90.06252 0,-49.86354 40.19902,-90.03125 90.06261,-90.03125 l 62.43758,0 0,-22 z"
       id="path3863"
       style="font-size:medium;font-style:normal;font-variant:normal;font-weight:normal;font-stretch:normal;text-indent:0;text-align:start;text-decoration:none;line-height:normal;letter-spacing:normal;word-spacing:normal;text-transform:none;direction:ltr;block-progression:tb;writing-mode:lr-tb;text-anchor:start;baseline-shift:baseline;color:#000000;fill:#ba8d39;fill-opacity:1;fill-rule:nonzero;stroke:none;stroke-width:22.00000191;marker:none;visibility:visible;display:inline;overflow:visible;enable-background:accumulate;font-family:Sans;-inkscape-font-specification:Sans" />
    <path
       d="m 298.18788,821.36218 c -43.58859,0 -81.65866,24.18644 -101.40638,59.8125 l 26.00003,0 c 17.05708,-22.96431 44.42286,-37.8125 75.40635,-37.8125 30.98466,0 58.37169,14.84671 75.4376,37.8125 l 26.00003,0 c -19.75696,-35.62606 -57.84903,-59.8125 -101.43763,-59.8125 z M 196.81275,992.58093 c 19.75359,35.60567 57.8017,59.78127 101.37513,59.78127 43.57343,0 81.64355,-24.1756 101.40638,-59.78127 l -25.96878,0 c -17.06697,22.95417 -44.46212,37.78127 -75.4376,37.78127 -30.97446,0 -58.34823,-14.8284 -75.40635,-37.78127 z"
       id="path3891"
       style="font-size:medium;font-style:normal;font-variant:normal;font-weight:normal;font-stretch:normal;text-indent:0;text-align:start;text-decoration:none;line-height:normal;letter-spacing:normal;word-spacing:normal;text-transform:none;direction:ltr;block-progression:tb;writing-mode:lr-tb;text-anchor:start;baseline-shift:baseline;color:#000000;fill:#ba8d39;fill-opacity:1;stroke:none;stroke-width:22.00000763;marker:none;visibility:visible;display:inline;overflow:visible;enable-background:accumulate;font-family:Sans;-inkscape-font-specification:Sans" />
    <path
       d="m 345.48029,956.71918 0,6.4 6.4,0 0,-6.4 z"
       id="rect3907"
       style="font-size:medium;font-style:normal;font-variant:normal;font-weight:normal;font-stretch:normal;text-indent:0;text-align:start;text-decoration:none;line-height:normal;letter-spacing:normal;word-spacing:normal;text-transform:none;direction:ltr;block-progression:tb;writing-mode:lr-tb;text-anchor:start;baseline-shift:baseline;color:#000000;fill:#ba8d39;fill-opacity:1;stroke:none;stroke-width:22;marker:none;visibility:visible;display:inline;overflow:visible;enable-background:accumulate;font-family:Sans;-inkscape-font-specification:Sans" />
    <path
       d="m 284.12536,908.42468 c -4.06163,0 -7.94403,0.67919 -11.15626,2.3125 -3.21224,1.63331 -5.96876,4.70684 -5.96876,8.625 l 0,44.75 6.40626,0 0,-20.5 21.46878,0 0,20.5 6.40625,0 0,-44.75 c 0,-3.91816 -2.75652,-6.99169 -5.96875,-8.625 -3.21224,-1.63331 -7.12588,-2.3125 -11.18752,-2.3125 z m 0,6.40625 c 3.28034,0 6.36339,0.64983 8.28126,1.625 1.91788,0.97517 2.46876,1.7683 2.46876,2.90625 l 0,17.84375 -21.46878,0 0,-17.84375 c 0,-1.13795 0.55088,-1.93108 2.46875,-2.90625 1.91787,-0.97517 4.96968,-1.625 8.25001,-1.625 z"
       id="path3913"
       style="font-size:medium;font-style:normal;font-variant:normal;font-weight:normal;font-stretch:normal;text-indent:0;text-align:start;text-decoration:none;line-height:normal;letter-spacing:normal;word-spacing:normal;text-transform:none;direction:ltr;block-progression:tb;writing-mode:lr-tb;text-anchor:start;baseline-shift:baseline;color:#000000;fill:#ba8d39;fill-opacity:1;stroke:none;stroke-width:6.4000001;marker:none;visibility:visible;display:inline;overflow:visible;enable-background:accumulate;font-family:Sans;-inkscape-font-specification:Sans" />
    <path
       d="m 309.59415,908.83093 0,6.375 14.31251,0 0,48.90625 6.40626,0 0,-48.90625 14.28127,0 0,-6.375 z"
       id="rect3915-4"
       style="color:#000000;fill:#ba8d39;fill-opacity:1;stroke:none;stroke-width:6.4000001;marker:none;visibility:visible;display:inline;overflow:visible;enable-background:accumulate" />
    <path
       d="m 358.40672,908.81918 0,7 8.09375,0 0,48.293 6.40626,0 0,-55.293 z"
       id="path3957"
       style="font-size:medium;font-style:normal;font-variant:normal;font-weight:normal;font-stretch:normal;text-indent:0;text-align:start;text-decoration:none;line-height:normal;letter-spacing:normal;word-spacing:normal;text-transform:none;direction:ltr;block-progression:tb;writing-mode:lr-tb;text-anchor:start;baseline-shift:baseline;color:#000000;fill:#ba8d39;fill-opacity:1;stroke:none;stroke-width:6.4000001;marker:none;visibility:visible;display:inline;overflow:visible;enable-background:accumulate;font-family:Sans;-inkscape-font-specification:Sans" />
    <path
       d="m 239.40655,908.42468 c -4.03168,0 -8.11089,0.91193 -11.40626,3.3125 -3.29537,2.40057 -5.53126,6.46048 -5.53126,11.46875 0,5.95224 3.11473,10.16388 6.65626,12.3125 3.54154,2.14862 7.38222,2.74203 9.62501,3.21875 8.59746,1.82744 11.25002,6.15762 11.25002,11.59375 0,3.70546 -3.09067,8.1875 -10.59377,8.1875 -4.94562,0 -7.50633,-1.08293 -8.78126,-2.25 -1.26356,-1.15667 -1.77228,-2.6833 -1.78125,-5.0625 l -6.37501,0 c 0.0112,3.46011 0.96493,7.14598 3.84376,9.78125 2.89605,2.65104 7.22327,3.9375 13.09376,3.9375 10.29391,0 17.00003,-7.14012 17.00003,-14.59375 0,-8.06723 -5.66825,-15.5746 -16.34377,-17.84375 -2.45057,-0.52088 -5.46487,-1.12696 -7.62501,-2.4375 -2.16015,-1.31054 -3.59376,-2.83023 -3.59376,-6.84375 0,-3.29129 1.09417,-4.99246 2.90625,-6.3125 1.81209,-1.32004 4.61773,-2.0625 7.65626,-2.0625 3.08601,0 5.36739,0.57762 6.59376,1.4375 1.22637,0.85988 1.90626,1.89026 1.90626,4.65625 l 0,0.0937 6.40625,0 0,-0.0937 c 0,-4.23425 -1.72188,-7.87069 -4.625,-9.90625 -2.90313,-2.03556 -6.48517,-2.59375 -10.28127,-2.59375 z"
       id="path3983"
       style="font-size:medium;font-style:normal;font-variant:normal;font-weight:normal;font-stretch:normal;text-indent:0;text-align:start;text-decoration:none;line-height:normal;letter-spacing:normal;word-spacing:normal;text-transform:none;direction:ltr;block-progression:tb;writing-mode:lr-tb;text-anchor:start;baseline-shift:baseline;color:#000000;fill:#ba8d39;fill-opacity:1;stroke:none;stroke-width:6.4000001;marker:none;visibility:visible;display:inline;overflow:visible;enable-background:accumulate;font-family:Sans;-inkscape-font-specification:Sans" />
  </g>
</svg>
